<svg xmlns:dc="http://purl.org/dc/elements/1.1/" xmlns:cc="http://creativecommons.org/ns#" xmlns:rdf="http://www.w3.org/1999/02/22-rdf-syntax-ns#" xmlns:svg="http://www.w3.org/2000/svg" xmlns="http://www.w3.org/2000/svg" xmlns:xlink="http://www.w3.org/1999/xlink" id="svg250444" viewBox="0 0 1024 768" height="768px" width="1024px" version="1.1">
  <metadata id="metadata250450">
    <rdf:rdf>
      <cc:work rdf:about="">
        <dc:format>image/svg+xml</dc:format>
        <dc:type rdf:resource="http://purl.org/dc/dcmitype/StillImage"></dc:type>
      </cc:work>
    </rdf:rdf>
  </metadata>
  <defs id="defs250448"></defs>
  <linearGradient spreadMethod="pad" y2="30%" x2="-10%" y1="120%" x1="30%" id="3d_gradient2-logo-9ecd7d2b-ee1e-41b1-9c91-1c9ddfc26aef">
    <stop id="stop250425" stop-opacity="1" stop-color="#ffffff" offset="0%"></stop>
    <stop id="stop250427" stop-opacity="1" stop-color="#000000" offset="100%"></stop>
  </linearGradient>
  <linearGradient gradientTransform="rotate(-30)" spreadMethod="pad" y2="30%" x2="-10%" y1="120%" x1="30%" id="3d_gradient3-logo-9ecd7d2b-ee1e-41b1-9c91-1c9ddfc26aef">
    <stop id="stop250430" stop-opacity="1" stop-color="#ffffff" offset="0%"></stop>
    <stop id="stop250432" stop-opacity="1" stop-color="#cccccc" offset="50%"></stop>
    <stop id="stop250434" stop-opacity="1" stop-color="#000000" offset="100%"></stop>
  </linearGradient>
  <g id="logo-group">
    <image xlink:href="" id="container" x="272" y="144" width="480" height="480" style="display: none;" transform="translate(0 0)"></image>
    <g id="logo-center" transform="translate(0 0)">
      <image xlink:href="" id="icon_container" style="display: none;" x="0" y="0"></image>
      <g id="slogan" style="font-style:normal;font-weight:700;font-size:32px;line-height:1;font-family:Chivo;font-variant-ligatures:none;text-align:center;text-anchor:middle" transform="translate(0 0)"></g>
      <g id="title" style="font-style:normal;font-weight:800;font-size:72px;line-height:1;font-family:'Montserrat ExtraBold Alt1';font-variant-ligatures:none;text-align:center;text-anchor:middle" transform="translate(0 0)">
        <path id="path250453" style="font-style:normal;font-weight:800;font-size:72px;line-height:1;font-family:'Montserrat ExtraBold Alt1';font-variant-ligatures:none;text-align:center;text-anchor:middle" d="m 343.48062,-50.4 h -14.688 l 12.81601,39.672 7.19999,-22.608 z m 54.648,0 -10.584,32.472 -5.904,17.928 h 13.752 l 16.344,-50.4 z m -20.736,0 h -13.10399 l -10.656,32.184 L 348.01662,0 h 12.384 l 10.08,-30.672 5.328,16.992 6.768,-20.016 z" stroke-width="0" stroke-linejoin="miter" stroke-miterlimit="2" fill="#070707" stroke="#070707" transform="translate(0 313.561) translate(283.21015624999995 40.424) scale(1.25) translate(-328.79262 50.4)"></path>
        <path id="path250455" style="font-style:normal;font-weight:800;font-size:72px;line-height:1;font-family:'Montserrat ExtraBold Alt1';font-variant-ligatures:none;text-align:center;text-anchor:middle" d="m 421.59388,-1.944 c 3.31199,1.728 7.12799,2.592 11.30399,2.592 4.176,0 7.99201,-0.864 11.376,-2.592 3.312,-1.728 5.976,-4.104 7.848,-7.2 1.872,-3.024 2.808,-6.552 2.808,-10.44 0,-3.888 -0.936,-7.344 -2.808,-10.368 -1.872,-3.024 -4.536,-5.4 -7.848,-7.128 -3.38399,-1.728 -7.2,-2.592 -11.376,-2.592 -4.248,0 -8.064,0.864 -11.37599,2.592 -3.31201,1.728 -5.976,4.104 -7.84801,7.128 -1.872,3.096 -2.80799,6.552 -2.80799,10.368 0,3.888 0.93599,7.416 2.80799,10.44 1.87201,3.096 4.536,5.472 7.92001,7.2 z m 17.20799,-10.728 c -1.584,1.656 -3.528,2.448 -5.904,2.448 -2.44799,0 -4.392,-0.792 -5.904,-2.448 -1.584,-1.656 -2.30399,-3.96 -2.30399,-6.912 0,-2.88 0.71999,-5.112 2.30399,-6.768 1.512,-1.584 3.45601,-2.448 5.904,-2.448 2.376,0 4.32,0.864 5.904,2.448 1.512,1.656 2.304,3.888 2.304,6.768 0,2.952 -0.792,5.256 -2.304,6.912 z" stroke-width="0" stroke-linejoin="miter" stroke-miterlimit="2" fill="#121429" stroke="#121429" transform="translate(0 313.561) translate(385.80173124999993 53.834) scale(1.25) translate(-410.86588 39.672)"></path>
        <path id="path250457" style="font-style:normal;font-weight:800;font-size:72px;line-height:1;font-family:'Montserrat ExtraBold Alt1';font-variant-ligatures:none;text-align:center;text-anchor:middle" d="m 479.699,-38.304 c -2.232,0.864 -4.032,2.232 -5.4,3.96 v -4.68 H 461.267 V 0 h 13.68 v -17.928 c 0,-3.24 0.792,-5.688 2.448,-7.272 1.656,-1.584 3.96,-2.376 6.912,-2.376 0.792,0 1.8,0.072 3.096,0.216 v -12.312 c -2.88,0 -5.472,0.504 -7.704,1.368 z" stroke-width="0" stroke-linejoin="miter" stroke-miterlimit="2" fill="#1d204b" stroke="#1d204b" transform="translate(0 313.561) translate(448.80313125 53.834) scale(1.25) translate(-461.267 39.672)"></path>
        <path id="path250459" style="font-style:normal;font-weight:800;font-size:72px;line-height:1;font-family:'Montserrat ExtraBold Alt1';font-variant-ligatures:none;text-align:center;text-anchor:middle" d="M 493.04825,-53.424 V 0 h 13.68 v -53.424 z" stroke-width="0" stroke-linejoin="miter" stroke-miterlimit="2" fill="#282d6d" stroke="#282d6d" transform="translate(0 313.561) translate(488.52969375 36.644) scale(1.25) translate(-493.04825 53.424)"></path>
        <path id="path250461" style="font-style:normal;font-weight:800;font-size:72px;line-height:1;font-family:'Montserrat ExtraBold Alt1';font-variant-ligatures:none;text-align:center;text-anchor:middle" d="m 557.02025,-53.424 h -13.68 v 17.784 c -2.592,-2.664 -6.192,-4.032 -10.8,-4.032 -3.6,0 -6.84,0.864 -9.72,2.448 -2.952,1.656 -5.256,4.032 -6.984,7.056 -1.728,3.024 -2.52,6.552 -2.52,10.584 0,4.032 0.792,7.632 2.52,10.656 1.728,3.096 4.032,5.472 6.984,7.128 2.88,1.656 6.12,2.448 9.72,2.448 5.04,0 8.856,-1.512 11.448,-4.536 V 0 h 13.032 z m -15.768,40.752 c -1.584,1.656 -3.528,2.448 -5.832,2.448 -2.448,0 -4.392,-0.792 -5.904,-2.448 -1.584,-1.656 -2.304,-3.96 -2.304,-6.912 0,-2.88 0.72,-5.112 2.304,-6.768 1.512,-1.584 3.456,-2.448 5.904,-2.448 2.376,0 4.32,0.864 5.832,2.448 1.512,1.656 2.304,3.888 2.304,6.768 0,2.952 -0.792,5.256 -2.304,6.912 z" stroke-width="0" stroke-linejoin="miter" stroke-miterlimit="2" fill="#323a8f" stroke="#323a8f" transform="translate(0 313.561) translate(513.86469375 36.644) scale(1.25) translate(-513.31625 53.424)"></path>
        <path id="path250463" style="font-style:normal;font-weight:800;font-size:72px;line-height:1;font-family:'Montserrat ExtraBold Alt1';font-variant-ligatures:none;text-align:center;text-anchor:middle" d="m 565.67938,-1.656 c 1.58399,1.584 3.52799,2.304 5.832,2.304 2.304,0 4.24799,-0.72 5.832,-2.304 1.58399,-1.512 2.376,-3.456 2.376,-5.832 0,-2.376 -0.79201,-4.32 -2.304,-5.832 -1.58401,-1.44 -3.528,-2.232 -5.904,-2.232 -2.37601,0 -4.32001,0.792 -5.904,2.232 -1.58401,1.512 -2.30401,3.456 -2.30401,5.832 0,2.376 0.792,4.32 2.37601,5.832 z" stroke-width="0" stroke-linejoin="miter" stroke-miterlimit="2" fill="#3d47b1" stroke="#3d47b1" transform="translate(0 313.561) translate(576.3485937500001 83.98400000000001) scale(1.25) translate(-563.30337 15.552)"></path>
        <path id="path250465" style="font-style:normal;font-weight:800;font-size:72px;line-height:1;font-family:'Montserrat ExtraBold Alt1';font-variant-ligatures:none;text-align:center;text-anchor:middle" d="m 648.422,-35.352 c -2.88,-2.88 -6.696,-4.32 -11.448,-4.32 -2.808,0 -5.4,0.576 -7.704,1.584 -2.376,1.08 -4.32,2.592 -5.832,4.536 -1.368,-2.016 -3.096,-3.6 -5.256,-4.608 -2.16,-1.008 -4.608,-1.512 -7.344,-1.512 -2.376,0 -4.536,0.432 -6.552,1.224 -2.016,0.792 -3.672,1.944 -5.112,3.528 v -4.104 H 586.142 V 0 h 13.68 v -19.368 c 0,-2.88 0.576,-5.112 1.872,-6.552 1.224,-1.44 2.88,-2.16 5.04,-2.16 3.888,0 5.904,2.664 5.904,7.992 V 0 h 13.68 v -19.368 c 0,-2.88 0.576,-5.112 1.872,-6.552 1.224,-1.44 2.88,-2.16 4.968,-2.16 1.872,0 3.312,0.648 4.32,1.944 1.008,1.296 1.584,3.312 1.584,6.048 V 0 h 13.68 v -22.32 c 0,-5.76 -1.44,-10.152 -4.32,-13.032 z" stroke-width="0" stroke-linejoin="miter" stroke-miterlimit="2" fill="#4853d3" stroke="#4853d3" transform="translate(0 313.561) translate(604.8968812500002 53.834) scale(1.25) translate(-586.142 39.672)"></path>
        <path id="path250467" style="font-style:normal;font-weight:800;font-size:72px;line-height:1;font-family:'Montserrat ExtraBold Alt1';font-variant-ligatures:none;text-align:center;text-anchor:middle" d="m 665.91237,-0.432 c 3.168,0.72 6.336,1.08 9.64801,1.08 4.03199,0 7.55999,-0.504 10.43999,-1.656 2.88,-1.08 5.11201,-2.592 6.624,-4.536 1.44001,-1.944 2.232,-4.176 2.232,-6.624 0,-2.952 -0.79199,-5.256 -2.376,-6.912 -1.58399,-1.656 -3.384,-2.808 -5.472,-3.456 -2.15999,-0.576 -4.82399,-1.152 -7.99199,-1.656 -2.592,-0.36 -4.39201,-0.72 -5.47201,-1.08 -1.15199,-0.36 -1.656,-1.008 -1.656,-1.944 0,-0.792 0.50401,-1.44 1.51201,-1.944 1.00799,-0.504 2.592,-0.792 4.75199,-0.792 4.03201,0 7.776,1.008 11.232,2.88 l 4.10401,-9.288 c -1.87201,-1.008 -4.24801,-1.872 -6.98401,-2.448 -2.808,-0.576 -5.616,-0.864 -8.424,-0.864 -4.032,0 -7.416,0.576 -10.296,1.728 -2.88,1.152 -5.04,2.664 -6.47999,4.608 -1.51201,1.944 -2.23201,4.176 -2.23201,6.624 0,3.024 0.792,5.4 2.37601,7.056 1.58399,1.728 3.45599,2.88 5.616,3.456 2.15999,0.648 4.82399,1.152 7.99199,1.512 2.448,0.36 4.17601,0.72 5.328,1.08 1.15201,0.36 1.72801,0.936 1.72801,1.8 0,0.864 -0.504,1.584 -1.44001,2.016 -0.936,0.432 -2.52,0.648 -4.67999,0.648 -2.44801,0 -4.82401,-0.288 -7.27201,-0.936 -2.448,-0.648 -4.60799,-1.512 -6.336,-2.664 l -4.10399,9.36 c 1.87199,1.224 4.46399,2.232 7.63199,2.952 z" stroke-width="0" stroke-linejoin="miter" stroke-miterlimit="2" fill="#5360f5" stroke="#5360f5" transform="translate(0 313.561) translate(695.0698562500002 53.834) scale(1.25) translate(-658.28038 39.672)"></path>
      </g>
      <image xlink:href="" id="icon" style="display: none;" x="0" y="0"></image>
    </g>
  </g>
</svg>